<?xml version="1.0" encoding="UTF-8" standalone="no"?><svg xmlns="http://www.w3.org/2000/svg" xmlns:xlink="http://www.w3.org/1999/xlink" contentStyleType="text/css" height="962px" preserveAspectRatio="none" style="width:985px;height:962px;background:#FFFFFF;" version="1.1" viewBox="0 0 985 962" width="985px" zoomAndPan="magnify"><defs/><g><line style="stroke:#181818;stroke-width:0.5;stroke-dasharray:5.0,5.0;" x1="53" x2="53" y1="81.2969" y2="881.6172"/><line style="stroke:#181818;stroke-width:0.5;stroke-dasharray:5.0,5.0;" x1="178.5" x2="178.5" y1="81.2969" y2="881.6172"/><line style="stroke:#181818;stroke-width:0.5;stroke-dasharray:5.0,5.0;" x1="339" x2="339" y1="81.2969" y2="881.6172"/><line style="stroke:#181818;stroke-width:0.5;stroke-dasharray:5.0,5.0;" x1="498.5" x2="498.5" y1="81.2969" y2="881.6172"/><line style="stroke:#181818;stroke-width:0.5;stroke-dasharray:5.0,5.0;" x1="583.5" x2="583.5" y1="81.2969" y2="881.6172"/><line style="stroke:#181818;stroke-width:0.5;stroke-dasharray:5.0,5.0;" x1="793.5" x2="793.5" y1="81.2969" y2="881.6172"/><line style="stroke:#181818;stroke-width:0.5;stroke-dasharray:5.0,5.0;" x1="874.5" x2="874.5" y1="81.2969" y2="881.6172"/><line style="stroke:#181818;stroke-width:0.5;stroke-dasharray:5.0,5.0;" x1="953.5" x2="953.5" y1="81.2969" y2="881.6172"/><text fill="#000000" font-family="sans-serif" font-size="14" lengthAdjust="spacing" textLength="90" x="5" y="77.9951">person-repo</text><ellipse cx="53" cy="13.5" fill="#E2E2F0" rx="8" ry="8" style="stroke:#181818;stroke-width:0.5;"/><path d="M53,21.5 L53,48.5 M40,29.5 L66,29.5 M53,48.5 L40,63.5 M53,48.5 L66,63.5 " fill="none" style="stroke:#181818;stroke-width:0.5;"/><text fill="#000000" font-family="sans-serif" font-size="14" lengthAdjust="spacing" textLength="90" x="5" y="893.6123">person-repo</text><ellipse cx="53" cy="905.4141" fill="#E2E2F0" rx="8" ry="8" style="stroke:#181818;stroke-width:0.5;"/><path d="M53,913.4141 L53,940.4141 M40,921.4141 L66,921.4141 M53,940.4141 L40,955.4141 M53,940.4141 L66,955.4141 " fill="none" style="stroke:#181818;stroke-width:0.5;"/><rect fill="#E2E2F0" height="30.2969" rx="2.5" ry="2.5" style="stroke:#181818;stroke-width:0.5;" width="67" x="145.5" y="50"/><text fill="#000000" font-family="sans-serif" font-size="14" lengthAdjust="spacing" textLength="53" x="152.5" y="69.9951">feature</text><rect fill="#E2E2F0" height="30.2969" rx="2.5" ry="2.5" style="stroke:#181818;stroke-width:0.5;" width="67" x="145.5" y="880.6172"/><text fill="#000000" font-family="sans-serif" font-size="14" lengthAdjust="spacing" textLength="53" x="152.5" y="900.6123">feature</text><rect fill="#E2E2F0" height="30.2969" rx="2.5" ry="2.5" style="stroke:#181818;stroke-width:0.5;" width="72" x="303" y="50"/><text fill="#000000" font-family="sans-serif" font-size="14" lengthAdjust="spacing" textLength="58" x="310" y="69.9951">develop</text><rect fill="#E2E2F0" height="30.2969" rx="2.5" ry="2.5" style="stroke:#181818;stroke-width:0.5;" width="72" x="303" y="880.6172"/><text fill="#000000" font-family="sans-serif" font-size="14" lengthAdjust="spacing" textLength="58" x="310" y="900.6123">develop</text><rect fill="#E2E2F0" height="30.2969" rx="2.5" ry="2.5" style="stroke:#181818;stroke-width:0.5;" width="93" x="452.5" y="50"/><text fill="#000000" font-family="sans-serif" font-size="14" lengthAdjust="spacing" textLength="79" x="459.5" y="69.9951">release-x.x</text><rect fill="#E2E2F0" height="30.2969" rx="2.5" ry="2.5" style="stroke:#181818;stroke-width:0.5;" width="93" x="452.5" y="880.6172"/><text fill="#000000" font-family="sans-serif" font-size="14" lengthAdjust="spacing" textLength="79" x="459.5" y="900.6123">release-x.x</text><rect fill="#E2E2F0" height="30.2969" rx="2.5" ry="2.5" style="stroke:#181818;stroke-width:0.5;" width="57" x="555.5" y="50"/><text fill="#000000" font-family="sans-serif" font-size="14" lengthAdjust="spacing" textLength="43" x="562.5" y="69.9951">hotfix</text><rect fill="#E2E2F0" height="30.2969" rx="2.5" ry="2.5" style="stroke:#181818;stroke-width:0.5;" width="57" x="555.5" y="880.6172"/><text fill="#000000" font-family="sans-serif" font-size="14" lengthAdjust="spacing" textLength="43" x="562.5" y="900.6123">hotfix</text><rect fill="#E2E2F0" height="30.2969" rx="2.5" ry="2.5" style="stroke:#181818;stroke-width:0.5;" width="65" x="761.5" y="50"/><text fill="#000000" font-family="sans-serif" font-size="14" lengthAdjust="spacing" textLength="51" x="768.5" y="69.9951">master</text><rect fill="#E2E2F0" height="30.2969" rx="2.5" ry="2.5" style="stroke:#181818;stroke-width:0.5;" width="65" x="761.5" y="880.6172"/><text fill="#000000" font-family="sans-serif" font-size="14" lengthAdjust="spacing" textLength="51" x="768.5" y="900.6123">master</text><text fill="#000000" font-family="sans-serif" font-size="14" lengthAdjust="spacing" textLength="70" x="836.5" y="77.9951">预发布环境</text><ellipse cx="874.5" cy="49" fill="#E2E2F0" rx="12" ry="12" style="stroke:#181818;stroke-width:0.5;"/><polygon fill="#181818" points="870.5,37,876.5,32,874.5,37,876.5,42,870.5,37" style="stroke:#181818;stroke-width:1.0;"/><text fill="#000000" font-family="sans-serif" font-size="14" lengthAdjust="spacing" textLength="70" x="836.5" y="893.6123">预发布环境</text><ellipse cx="874.5" cy="912.9141" fill="#E2E2F0" rx="12" ry="12" style="stroke:#181818;stroke-width:0.5;"/><polygon fill="#181818" points="870.5,900.9141,876.5,895.9141,874.5,900.9141,876.5,905.9141,870.5,900.9141" style="stroke:#181818;stroke-width:1.0;"/><text fill="#000000" font-family="sans-serif" font-size="14" lengthAdjust="spacing" textLength="56" x="922.5" y="77.9951">生产环境</text><ellipse cx="953.5" cy="49" fill="#E2E2F0" rx="12" ry="12" style="stroke:#181818;stroke-width:0.5;"/><polygon fill="#181818" points="949.5,37,955.5,32,953.5,37,955.5,42,949.5,37" style="stroke:#181818;stroke-width:1.0;"/><text fill="#000000" font-family="sans-serif" font-size="14" lengthAdjust="spacing" textLength="56" x="922.5" y="893.6123">生产环境</text><ellipse cx="953.5" cy="912.9141" fill="#E2E2F0" rx="12" ry="12" style="stroke:#181818;stroke-width:0.5;"/><polygon fill="#181818" points="949.5,900.9141,955.5,895.9141,953.5,900.9141,955.5,905.9141,949.5,900.9141" style="stroke:#181818;stroke-width:1.0;"/><polygon fill="#181818" points="350,108.4297,340,112.4297,350,116.4297,346,112.4297" style="stroke:#181818;stroke-width:1.0;"/><line style="stroke:#181818;stroke-width:1.0;" x1="344" x2="793" y1="112.4297" y2="112.4297"/><text fill="#000000" font-family="sans-serif" font-size="13" lengthAdjust="spacing" textLength="58" x="356" y="107.3638">checkout</text><polygon fill="#181818" points="64,137.5625,54,141.5625,64,145.5625,60,141.5625" style="stroke:#181818;stroke-width:1.0;"/><line style="stroke:#181818;stroke-width:1.0;" x1="58" x2="338" y1="141.5625" y2="141.5625"/><text fill="#000000" font-family="sans-serif" font-size="13" lengthAdjust="spacing" textLength="22" x="70" y="136.4966">pull</text><line style="stroke:#181818;stroke-width:1.0;" x1="53" x2="95" y1="170.6953" y2="170.6953"/><line style="stroke:#181818;stroke-width:1.0;" x1="95" x2="95" y1="170.6953" y2="183.6953"/><line style="stroke:#181818;stroke-width:1.0;" x1="54" x2="95" y1="183.6953" y2="183.6953"/><polygon fill="#181818" points="64,179.6953,54,183.6953,64,187.6953,60,183.6953" style="stroke:#181818;stroke-width:1.0;"/><text fill="#000000" font-family="sans-serif" font-size="13" lengthAdjust="spacing" textLength="49" x="60" y="165.6294">commit</text><polygon fill="#181818" points="327,208.8281,337,212.8281,327,216.8281,331,212.8281" style="stroke:#181818;stroke-width:1.0;"/><line style="stroke:#181818;stroke-width:1.0;" x1="53" x2="333" y1="212.8281" y2="212.8281"/><text fill="#000000" font-family="sans-serif" font-size="13" lengthAdjust="spacing" textLength="102" x="60" y="207.7622">merge requests</text><polygon fill="#181818" points="190,237.9609,180,241.9609,190,245.9609,186,241.9609" style="stroke:#181818;stroke-width:1.0;"/><line style="stroke:#181818;stroke-width:1.0;" x1="184" x2="338" y1="241.9609" y2="241.9609"/><text fill="#000000" font-family="sans-serif" font-size="13" lengthAdjust="spacing" textLength="136" x="196" y="236.895">checkout（功能开发）</text><polygon fill="#181818" points="64,267.0938,54,271.0938,64,275.0938,60,271.0938" style="stroke:#181818;stroke-width:1.0;"/><line style="stroke:#181818;stroke-width:1.0;" x1="58" x2="178" y1="271.0938" y2="271.0938"/><text fill="#000000" font-family="sans-serif" font-size="13" lengthAdjust="spacing" textLength="22" x="70" y="266.0278">pull</text><line style="stroke:#181818;stroke-width:1.0;" x1="53" x2="95" y1="300.2266" y2="300.2266"/><line style="stroke:#181818;stroke-width:1.0;" x1="95" x2="95" y1="300.2266" y2="313.2266"/><line style="stroke:#181818;stroke-width:1.0;" x1="54" x2="95" y1="313.2266" y2="313.2266"/><polygon fill="#181818" points="64,309.2266,54,313.2266,64,317.2266,60,313.2266" style="stroke:#181818;stroke-width:1.0;"/><text fill="#000000" font-family="sans-serif" font-size="13" lengthAdjust="spacing" textLength="49" x="60" y="295.1606">commit</text><polygon fill="#181818" points="167,338.3594,177,342.3594,167,346.3594,171,342.3594" style="stroke:#181818;stroke-width:1.0;"/><line style="stroke:#181818;stroke-width:1.0;" x1="53" x2="173" y1="342.3594" y2="342.3594"/><text fill="#000000" font-family="sans-serif" font-size="13" lengthAdjust="spacing" textLength="102" x="60" y="337.2935">merge requests</text><polygon fill="#181818" points="327,367.4922,337,371.4922,327,375.4922,331,371.4922" style="stroke:#181818;stroke-width:1.0;"/><line style="stroke:#181818;stroke-width:1.0;" x1="179" x2="333" y1="371.4922" y2="371.4922"/><text fill="#000000" font-family="sans-serif" font-size="13" lengthAdjust="spacing" textLength="42" x="186" y="366.4263">merge</text><polygon fill="#181818" points="487,396.625,497,400.625,487,404.625,491,400.625" style="stroke:#181818;stroke-width:1.0;"/><line style="stroke:#181818;stroke-width:1.0;" x1="339" x2="493" y1="400.625" y2="400.625"/><text fill="#000000" font-family="sans-serif" font-size="13" lengthAdjust="spacing" textLength="136" x="346" y="395.5591">checkout（版本发布）</text><polygon fill="#181818" points="64,425.7578,54,429.7578,64,433.7578,60,429.7578" style="stroke:#181818;stroke-width:1.0;"/><line style="stroke:#181818;stroke-width:1.0;" x1="58" x2="498" y1="429.7578" y2="429.7578"/><text fill="#000000" font-family="sans-serif" font-size="13" lengthAdjust="spacing" textLength="22" x="70" y="424.6919">pull</text><line style="stroke:#181818;stroke-width:1.0;" x1="53" x2="95" y1="458.8906" y2="458.8906"/><line style="stroke:#181818;stroke-width:1.0;" x1="95" x2="95" y1="458.8906" y2="471.8906"/><line style="stroke:#181818;stroke-width:1.0;" x1="54" x2="95" y1="471.8906" y2="471.8906"/><polygon fill="#181818" points="64,467.8906,54,471.8906,64,475.8906,60,471.8906" style="stroke:#181818;stroke-width:1.0;"/><text fill="#000000" font-family="sans-serif" font-size="13" lengthAdjust="spacing" textLength="44" x="60" y="453.8247">fix bug</text><polygon fill="#181818" points="487,497.0234,497,501.0234,487,505.0234,491,501.0234" style="stroke:#181818;stroke-width:1.0;"/><line style="stroke:#181818;stroke-width:1.0;" x1="53" x2="493" y1="501.0234" y2="501.0234"/><text fill="#000000" font-family="sans-serif" font-size="13" lengthAdjust="spacing" textLength="102" x="60" y="495.9575">merge requests</text><polygon fill="#181818" points="862.5,526.1563,872.5,530.1563,862.5,534.1563,866.5,530.1563" style="stroke:#181818;stroke-width:1.0;"/><line style="stroke:#181818;stroke-width:1.0;stroke-dasharray:2.0,2.0;" x1="499" x2="868.5" y1="530.1563" y2="530.1563"/><text fill="#000000" font-family="sans-serif" font-size="13" lengthAdjust="spacing" textLength="26" x="506" y="525.0903">测试</text><polygon fill="#181818" points="782,555.2891,792,559.2891,782,563.2891,786,559.2891" style="stroke:#181818;stroke-width:1.0;"/><line style="stroke:#181818;stroke-width:1.0;" x1="499" x2="788" y1="559.2891" y2="559.2891"/><text fill="#000000" font-family="sans-serif" font-size="13" lengthAdjust="spacing" textLength="42" x="506" y="554.2231">merge</text><polygon fill="#181818" points="941.5,584.4219,951.5,588.4219,941.5,592.4219,945.5,588.4219" style="stroke:#181818;stroke-width:1.0;"/><line style="stroke:#181818;stroke-width:1.0;stroke-dasharray:2.0,2.0;" x1="794" x2="947.5" y1="588.4219" y2="588.4219"/><text fill="#000000" font-family="sans-serif" font-size="13" lengthAdjust="spacing" textLength="52" x="801" y="583.356">部署测试</text><polygon fill="#181818" points="350,613.5547,340,617.5547,350,621.5547,346,617.5547" style="stroke:#181818;stroke-width:1.0;"/><line style="stroke:#181818;stroke-width:1.0;" x1="344" x2="498" y1="617.5547" y2="617.5547"/><text fill="#000000" font-family="sans-serif" font-size="13" lengthAdjust="spacing" textLength="42" x="356" y="612.4888">merge</text><polygon fill="#181818" points="595,642.6875,585,646.6875,595,650.6875,591,646.6875" style="stroke:#181818;stroke-width:1.0;"/><line style="stroke:#181818;stroke-width:1.0;" x1="589" x2="793" y1="646.6875" y2="646.6875"/><text fill="#000000" font-family="sans-serif" font-size="13" lengthAdjust="spacing" textLength="186" x="601" y="641.6216">checkout（线上bug紧急修复）</text><polygon fill="#181818" points="64,671.8203,54,675.8203,64,679.8203,60,675.8203" style="stroke:#181818;stroke-width:1.0;"/><line style="stroke:#181818;stroke-width:1.0;" x1="58" x2="583" y1="675.8203" y2="675.8203"/><text fill="#000000" font-family="sans-serif" font-size="13" lengthAdjust="spacing" textLength="22" x="70" y="670.7544">pull</text><line style="stroke:#181818;stroke-width:1.0;" x1="53" x2="95" y1="704.9531" y2="704.9531"/><line style="stroke:#181818;stroke-width:1.0;" x1="95" x2="95" y1="704.9531" y2="717.9531"/><line style="stroke:#181818;stroke-width:1.0;" x1="54" x2="95" y1="717.9531" y2="717.9531"/><polygon fill="#181818" points="64,713.9531,54,717.9531,64,721.9531,60,717.9531" style="stroke:#181818;stroke-width:1.0;"/><text fill="#000000" font-family="sans-serif" font-size="13" lengthAdjust="spacing" textLength="44" x="60" y="699.8872">fix bug</text><polygon fill="#181818" points="572,743.0859,582,747.0859,572,751.0859,576,747.0859" style="stroke:#181818;stroke-width:1.0;"/><line style="stroke:#181818;stroke-width:1.0;" x1="53" x2="578" y1="747.0859" y2="747.0859"/><text fill="#000000" font-family="sans-serif" font-size="13" lengthAdjust="spacing" textLength="102" x="60" y="742.02">merge requests</text><polygon fill="#181818" points="782,772.2188,792,776.2188,782,780.2188,786,776.2188" style="stroke:#181818;stroke-width:1.0;"/><line style="stroke:#181818;stroke-width:1.0;" x1="584" x2="788" y1="776.2188" y2="776.2188"/><text fill="#000000" font-family="sans-serif" font-size="13" lengthAdjust="spacing" textLength="42" x="591" y="771.1528">merge</text><polygon fill="#181818" points="862.5,801.3516,872.5,805.3516,862.5,809.3516,866.5,805.3516" style="stroke:#181818;stroke-width:1.0;"/><line style="stroke:#181818;stroke-width:1.0;stroke-dasharray:2.0,2.0;" x1="794" x2="868.5" y1="805.3516" y2="805.3516"/><text fill="#000000" font-family="sans-serif" font-size="13" lengthAdjust="spacing" textLength="26" x="801" y="800.2856">测试</text><polygon fill="#181818" points="941.5,830.4844,951.5,834.4844,941.5,838.4844,945.5,834.4844" style="stroke:#181818;stroke-width:1.0;"/><line style="stroke:#181818;stroke-width:1.0;stroke-dasharray:2.0,2.0;" x1="794" x2="947.5" y1="834.4844" y2="834.4844"/><text fill="#000000" font-family="sans-serif" font-size="13" lengthAdjust="spacing" textLength="52" x="801" y="829.4185">部署发布</text><polygon fill="#181818" points="350,859.6172,340,863.6172,350,867.6172,346,863.6172" style="stroke:#181818;stroke-width:1.0;"/><line style="stroke:#181818;stroke-width:1.0;" x1="344" x2="583" y1="863.6172" y2="863.6172"/><text fill="#000000" font-family="sans-serif" font-size="13" lengthAdjust="spacing" textLength="42" x="356" y="858.5513">merge</text><!--MD5=[67f42b37911af0ef660b76df407691f6]
@startuml
actor "person-repo"
participant "feature"
participant "develop"
participant "release-x.x"
participant "hotfix"
participant "master"
control "预发布环境"
control "生产环境"


master -> develop: checkout
develop -> "person-repo": pull
"person-repo" -> "person-repo": commit
"person-repo" -> develop: merge requests

develop -> feature: checkout（功能开发）
feature -> "person-repo": pull
"person-repo" -> "person-repo": commit
"person-repo" -> feature: merge requests
feature -> develop: merge

develop -> "release-x.x": checkout（版本发布）
"release-x.x" -> "person-repo": pull
"person-repo" -> "person-repo": fix bug
"person-repo" -> "release-x.x": merge requests
"release-x.x" - -> "预发布环境": 测试
"release-x.x" -> master: merge
master - -> "生产环境": 部署测试
"release-x.x" -> develop: merge

master -> "hotfix": checkout（线上bug紧急修复）
"hotfix" -> "person-repo": pull
"person-repo" -> "person-repo": fix bug
"person-repo" -> "hotfix": merge requests
"hotfix" -> master: merge
master - -> "预发布环境": 测试
master - -> "生产环境": 部署发布
"hotfix" -> develop: merge
@enduml

PlantUML version 1.2022.10beta1(Unknown compile time)
(GPL source distribution)
Java Runtime: Java(TM) SE Runtime Environment
JVM: Java HotSpot(TM) 64-Bit Server VM
Default Encoding: UTF-8
Language: en
Country: US
--></g></svg>