<?xml version="1.0" encoding="UTF-8" standalone="no"?><svg xmlns="http://www.w3.org/2000/svg" xmlns:xlink="http://www.w3.org/1999/xlink" contentStyleType="text/css" height="858px" preserveAspectRatio="none" style="width:830px;height:858px;background:#FFFFFF;" version="1.1" viewBox="0 0 830 858" width="830px" zoomAndPan="magnify"><defs/><g><line style="stroke:#181818;stroke-width:0.5;stroke-dasharray:5.0,5.0;" x1="53" x2="53" y1="81.2969" y2="778.0859"/><line style="stroke:#181818;stroke-width:0.5;stroke-dasharray:5.0,5.0;" x1="178.5" x2="178.5" y1="81.2969" y2="778.0859"/><line style="stroke:#181818;stroke-width:0.5;stroke-dasharray:5.0,5.0;" x1="296.5" x2="296.5" y1="81.2969" y2="778.0859"/><line style="stroke:#181818;stroke-width:0.5;stroke-dasharray:5.0,5.0;" x1="435.5" x2="435.5" y1="81.2969" y2="778.0859"/><line style="stroke:#181818;stroke-width:0.5;stroke-dasharray:5.0,5.0;" x1="556.5" x2="556.5" y1="81.2969" y2="778.0859"/><line style="stroke:#181818;stroke-width:0.5;stroke-dasharray:5.0,5.0;" x1="682.5" x2="682.5" y1="81.2969" y2="778.0859"/><line style="stroke:#181818;stroke-width:0.5;stroke-dasharray:5.0,5.0;" x1="781.5" x2="781.5" y1="81.2969" y2="778.0859"/><text fill="#000000" font-family="sans-serif" font-size="14" lengthAdjust="spacing" textLength="90" x="5" y="77.9951">person-repo</text><ellipse cx="53" cy="13.5" fill="#E2E2F0" rx="8" ry="8" style="stroke:#181818;stroke-width:0.5;"/><path d="M53,21.5 L53,48.5 M40,29.5 L66,29.5 M53,48.5 L40,63.5 M53,48.5 L66,63.5 " fill="none" style="stroke:#181818;stroke-width:0.5;"/><text fill="#000000" font-family="sans-serif" font-size="14" lengthAdjust="spacing" textLength="90" x="5" y="790.0811">person-repo</text><ellipse cx="53" cy="801.8828" fill="#E2E2F0" rx="8" ry="8" style="stroke:#181818;stroke-width:0.5;"/><path d="M53,809.8828 L53,836.8828 M40,817.8828 L66,817.8828 M53,836.8828 L40,851.8828 M53,836.8828 L66,851.8828 " fill="none" style="stroke:#181818;stroke-width:0.5;"/><rect fill="#E2E2F0" height="30.2969" rx="2.5" ry="2.5" style="stroke:#181818;stroke-width:0.5;" width="65" x="146.5" y="50"/><text fill="#000000" font-family="sans-serif" font-size="14" lengthAdjust="spacing" textLength="51" x="153.5" y="69.9951">master</text><rect fill="#E2E2F0" height="30.2969" rx="2.5" ry="2.5" style="stroke:#181818;stroke-width:0.5;" width="65" x="146.5" y="777.0859"/><text fill="#000000" font-family="sans-serif" font-size="14" lengthAdjust="spacing" textLength="51" x="153.5" y="797.0811">master</text><rect fill="#E2E2F0" height="30.2969" rx="2.5" ry="2.5" style="stroke:#181818;stroke-width:0.5;" width="151" x="221.5" y="50"/><text fill="#000000" font-family="sans-serif" font-size="14" lengthAdjust="spacing" textLength="137" x="228.5" y="69.9951">release-x.x.x-alpha</text><rect fill="#E2E2F0" height="30.2969" rx="2.5" ry="2.5" style="stroke:#181818;stroke-width:0.5;" width="151" x="221.5" y="777.0859"/><text fill="#000000" font-family="sans-serif" font-size="14" lengthAdjust="spacing" textLength="137" x="228.5" y="797.0811">release-x.x.x-alpha</text><rect fill="#E2E2F0" height="30.2969" rx="2.5" ry="2.5" style="stroke:#181818;stroke-width:0.5;" width="106" x="382.5" y="50"/><text fill="#000000" font-family="sans-serif" font-size="14" lengthAdjust="spacing" textLength="92" x="389.5" y="69.9951">release-x.x.x</text><rect fill="#E2E2F0" height="30.2969" rx="2.5" ry="2.5" style="stroke:#181818;stroke-width:0.5;" width="106" x="382.5" y="777.0859"/><text fill="#000000" font-family="sans-serif" font-size="14" lengthAdjust="spacing" textLength="92" x="389.5" y="797.0811">release-x.x.x</text><text fill="#000000" font-family="sans-serif" font-size="14" lengthAdjust="spacing" textLength="110" x="498.5" y="77.9951">stage预发布环境</text><ellipse cx="556.5" cy="49" fill="#E2E2F0" rx="12" ry="12" style="stroke:#181818;stroke-width:0.5;"/><polygon fill="#181818" points="552.5,37,558.5,32,556.5,37,558.5,42,552.5,37" style="stroke:#181818;stroke-width:1.0;"/><text fill="#000000" font-family="sans-serif" font-size="14" lengthAdjust="spacing" textLength="110" x="498.5" y="790.0811">stage预发布环境</text><ellipse cx="556.5" cy="809.3828" fill="#E2E2F0" rx="12" ry="12" style="stroke:#181818;stroke-width:0.5;"/><polygon fill="#181818" points="552.5,797.3828,558.5,792.3828,556.5,797.3828,558.5,802.3828,552.5,797.3828" style="stroke:#181818;stroke-width:1.0;"/><text fill="#000000" font-family="sans-serif" font-size="14" lengthAdjust="spacing" textLength="110" x="624.5" y="77.9951">pre-production</text><ellipse cx="682.5" cy="49" fill="#E2E2F0" rx="12" ry="12" style="stroke:#181818;stroke-width:0.5;"/><polygon fill="#181818" points="678.5,37,684.5,32,682.5,37,684.5,42,678.5,37" style="stroke:#181818;stroke-width:1.0;"/><text fill="#000000" font-family="sans-serif" font-size="14" lengthAdjust="spacing" textLength="110" x="624.5" y="790.0811">pre-production</text><ellipse cx="682.5" cy="809.3828" fill="#E2E2F0" rx="12" ry="12" style="stroke:#181818;stroke-width:0.5;"/><polygon fill="#181818" points="678.5,797.3828,684.5,792.3828,682.5,797.3828,684.5,802.3828,678.5,797.3828" style="stroke:#181818;stroke-width:1.0;"/><text fill="#000000" font-family="sans-serif" font-size="14" lengthAdjust="spacing" textLength="56" x="750.5" y="77.9951">生产环境</text><ellipse cx="781.5" cy="49" fill="#E2E2F0" rx="12" ry="12" style="stroke:#181818;stroke-width:0.5;"/><polygon fill="#181818" points="777.5,37,783.5,32,781.5,37,783.5,42,777.5,37" style="stroke:#181818;stroke-width:1.0;"/><text fill="#000000" font-family="sans-serif" font-size="14" lengthAdjust="spacing" textLength="56" x="750.5" y="790.0811">生产环境</text><ellipse cx="781.5" cy="809.3828" fill="#E2E2F0" rx="12" ry="12" style="stroke:#181818;stroke-width:0.5;"/><polygon fill="#181818" points="777.5,797.3828,783.5,792.3828,781.5,797.3828,783.5,802.3828,777.5,797.3828" style="stroke:#181818;stroke-width:1.0;"/><polygon fill="#181818" points="64,108.4297,54,112.4297,64,116.4297,60,112.4297" style="stroke:#181818;stroke-width:1.0;"/><line style="stroke:#181818;stroke-width:1.0;" x1="58" x2="178" y1="112.4297" y2="112.4297"/><text fill="#000000" font-family="sans-serif" font-size="13" lengthAdjust="spacing" textLength="25" x="70" y="107.3638">fork</text><line style="stroke:#181818;stroke-width:1.0;" x1="53" x2="95" y1="141.5625" y2="141.5625"/><line style="stroke:#181818;stroke-width:1.0;" x1="95" x2="95" y1="141.5625" y2="154.5625"/><line style="stroke:#181818;stroke-width:1.0;" x1="54" x2="95" y1="154.5625" y2="154.5625"/><polygon fill="#181818" points="64,150.5625,54,154.5625,64,158.5625,60,154.5625" style="stroke:#181818;stroke-width:1.0;"/><text fill="#000000" font-family="sans-serif" font-size="13" lengthAdjust="spacing" textLength="49" x="60" y="136.4966">commit</text><polygon fill="#181818" points="167,179.6953,177,183.6953,167,187.6953,171,183.6953" style="stroke:#181818;stroke-width:1.0;"/><line style="stroke:#181818;stroke-width:1.0;" x1="53" x2="173" y1="183.6953" y2="183.6953"/><text fill="#000000" font-family="sans-serif" font-size="13" lengthAdjust="spacing" textLength="102" x="60" y="178.6294">merge requests</text><polygon fill="#181818" points="544.5,208.8281,554.5,212.8281,544.5,216.8281,548.5,212.8281" style="stroke:#181818;stroke-width:1.0;"/><line style="stroke:#181818;stroke-width:1.0;" x1="179" x2="550.5" y1="212.8281" y2="212.8281"/><text fill="#000000" font-family="sans-serif" font-size="13" lengthAdjust="spacing" textLength="77" x="186" y="207.7622">自动化测试CI</text><polygon fill="#181818" points="190,237.9609,180,241.9609,190,245.9609,186,241.9609" style="stroke:#181818;stroke-width:1.0;"/><line style="stroke:#181818;stroke-width:1.0;" x1="184" x2="555.5" y1="241.9609" y2="241.9609"/><text fill="#000000" font-family="sans-serif" font-size="13" lengthAdjust="spacing" textLength="140" x="196" y="236.895">测试通过+code review</text><polygon fill="#181818" points="285,267.0938,295,271.0938,285,275.0938,289,271.0938" style="stroke:#181818;stroke-width:1.0;"/><line style="stroke:#181818;stroke-width:1.0;" x1="179" x2="291" y1="271.0938" y2="271.0938"/><text fill="#000000" font-family="sans-serif" font-size="13" lengthAdjust="spacing" textLength="66" x="186" y="266.0278">cherryPick</text><polygon fill="#181818" points="670.5,296.2266,680.5,300.2266,670.5,304.2266,674.5,300.2266" style="stroke:#181818;stroke-width:1.0;"/><line style="stroke:#181818;stroke-width:1.0;" x1="297" x2="676.5" y1="300.2266" y2="300.2266"/><text fill="#000000" font-family="sans-serif" font-size="13" lengthAdjust="spacing" textLength="26" x="304" y="295.1606">部署</text><line style="stroke:#181818;stroke-width:1.0;" x1="682.5" x2="724.5" y1="329.3594" y2="329.3594"/><line style="stroke:#181818;stroke-width:1.0;" x1="724.5" x2="724.5" y1="329.3594" y2="342.3594"/><line style="stroke:#181818;stroke-width:1.0;" x1="683.5" x2="724.5" y1="342.3594" y2="342.3594"/><polygon fill="#181818" points="693.5,338.3594,683.5,342.3594,693.5,346.3594,689.5,342.3594" style="stroke:#181818;stroke-width:1.0;"/><text fill="#000000" font-family="sans-serif" font-size="13" lengthAdjust="spacing" textLength="26" x="689.5" y="324.2935">测试</text><polygon fill="#181818" points="308,367.4922,298,371.4922,308,375.4922,304,371.4922" style="stroke:#181818;stroke-width:1.0;"/><line style="stroke:#181818;stroke-width:1.0;stroke-dasharray:2.0,2.0;" x1="302" x2="681.5" y1="371.4922" y2="371.4922"/><text fill="#000000" font-family="sans-serif" font-size="13" lengthAdjust="spacing" textLength="65" x="314" y="366.4263">测试不通过</text><polygon fill="#181818" points="64,396.625,54,400.625,64,404.625,60,400.625" style="stroke:#181818;stroke-width:1.0;"/><line style="stroke:#181818;stroke-width:1.0;" x1="58" x2="296" y1="400.625" y2="400.625"/><text fill="#000000" font-family="sans-serif" font-size="13" lengthAdjust="spacing" textLength="22" x="70" y="395.5591">pull</text><line style="stroke:#181818;stroke-width:1.0;" x1="53" x2="95" y1="429.7578" y2="429.7578"/><line style="stroke:#181818;stroke-width:1.0;" x1="95" x2="95" y1="429.7578" y2="442.7578"/><line style="stroke:#181818;stroke-width:1.0;" x1="54" x2="95" y1="442.7578" y2="442.7578"/><polygon fill="#181818" points="64,438.7578,54,442.7578,64,446.7578,60,442.7578" style="stroke:#181818;stroke-width:1.0;"/><text fill="#000000" font-family="sans-serif" font-size="13" lengthAdjust="spacing" textLength="44" x="60" y="424.6919">fix bug</text><polygon fill="#181818" points="285,467.8906,295,471.8906,285,475.8906,289,471.8906" style="stroke:#181818;stroke-width:1.0;"/><line style="stroke:#181818;stroke-width:1.0;" x1="53" x2="291" y1="471.8906" y2="471.8906"/><text fill="#000000" font-family="sans-serif" font-size="13" lengthAdjust="spacing" textLength="102" x="60" y="466.8247">merge requests</text><polygon fill="#181818" points="670.5,497.0234,680.5,501.0234,670.5,505.0234,674.5,501.0234" style="stroke:#181818;stroke-width:1.0;"/><line style="stroke:#181818;stroke-width:1.0;" x1="297" x2="676.5" y1="501.0234" y2="501.0234"/><text fill="#000000" font-family="sans-serif" font-size="13" lengthAdjust="spacing" textLength="26" x="304" y="495.9575">部署</text><line style="stroke:#181818;stroke-width:1.0;" x1="682.5" x2="724.5" y1="530.1563" y2="530.1563"/><line style="stroke:#181818;stroke-width:1.0;" x1="724.5" x2="724.5" y1="530.1563" y2="543.1563"/><line style="stroke:#181818;stroke-width:1.0;" x1="683.5" x2="724.5" y1="543.1563" y2="543.1563"/><polygon fill="#181818" points="693.5,539.1563,683.5,543.1563,693.5,547.1563,689.5,543.1563" style="stroke:#181818;stroke-width:1.0;"/><text fill="#000000" font-family="sans-serif" font-size="13" lengthAdjust="spacing" textLength="26" x="689.5" y="525.0903">测试</text><polygon fill="#181818" points="308,568.2891,298,572.2891,308,576.2891,304,572.2891" style="stroke:#181818;stroke-width:1.0;"/><line style="stroke:#181818;stroke-width:1.0;stroke-dasharray:2.0,2.0;" x1="302" x2="681.5" y1="572.2891" y2="572.2891"/><text fill="#000000" font-family="sans-serif" font-size="13" lengthAdjust="spacing" textLength="52" x="314" y="567.2231">测试通过</text><polygon fill="#181818" points="423.5,597.4219,433.5,601.4219,423.5,605.4219,427.5,601.4219" style="stroke:#181818;stroke-width:1.0;"/><line style="stroke:#181818;stroke-width:1.0;" x1="297" x2="429.5" y1="601.4219" y2="601.4219"/><text fill="#000000" font-family="sans-serif" font-size="13" lengthAdjust="spacing" textLength="75" x="304" y="596.356">checkout -b</text><line style="stroke:#181818;stroke-width:2.0;" x1="304" x2="314" y1="625.5547" y2="635.5547"/><line style="stroke:#181818;stroke-width:2.0;" x1="304" x2="314" y1="635.5547" y2="625.5547"/><line style="stroke:#181818;stroke-width:1.0;" x1="309" x2="434.5" y1="630.5547" y2="630.5547"/><text fill="#000000" font-family="sans-serif" font-size="13" lengthAdjust="spacing" textLength="113" x="314" y="625.4888">删除分支alpha分支</text><polygon fill="#181818" points="769.5,655.6875,779.5,659.6875,769.5,663.6875,773.5,659.6875" style="stroke:#181818;stroke-width:1.0;"/><line style="stroke:#181818;stroke-width:1.0;" x1="435.5" x2="775.5" y1="659.6875" y2="659.6875"/><text fill="#000000" font-family="sans-serif" font-size="13" lengthAdjust="spacing" textLength="26" x="442.5" y="654.6216">部署</text><line style="stroke:#181818;stroke-width:1.0;stroke-dasharray:2.0,2.0;" x1="781.5" x2="823.5" y1="688.8203" y2="688.8203"/><line style="stroke:#181818;stroke-width:1.0;stroke-dasharray:2.0,2.0;" x1="823.5" x2="823.5" y1="688.8203" y2="701.8203"/><line style="stroke:#181818;stroke-width:1.0;stroke-dasharray:2.0,2.0;" x1="782.5" x2="823.5" y1="701.8203" y2="701.8203"/><polygon fill="#181818" points="792.5,697.8203,782.5,701.8203,792.5,705.8203,788.5,701.8203" style="stroke:#181818;stroke-width:1.0;"/><text fill="#000000" font-family="sans-serif" font-size="13" lengthAdjust="spacing" textLength="26" x="788.5" y="683.7544">测试</text><polygon fill="#181818" points="446.5,726.9531,436.5,730.9531,446.5,734.9531,442.5,730.9531" style="stroke:#181818;stroke-width:1.0;"/><line style="stroke:#181818;stroke-width:1.0;stroke-dasharray:2.0,2.0;" x1="440.5" x2="780.5" y1="730.9531" y2="730.9531"/><text fill="#000000" font-family="sans-serif" font-size="13" lengthAdjust="spacing" textLength="52" x="452.5" y="725.8872">测试通过</text><polygon fill="#181818" points="190,756.0859,180,760.0859,190,764.0859,186,760.0859" style="stroke:#181818;stroke-width:1.0;"/><line style="stroke:#181818;stroke-width:1.0;" x1="184" x2="434.5" y1="760.0859" y2="760.0859"/><text fill="#000000" font-family="sans-serif" font-size="13" lengthAdjust="spacing" textLength="66" x="196" y="755.02">cherryPick</text><!--MD5=[e0647f6ee7d79acf71edd63cd5554472]
@startuml
actor "person-repo"
participant "master"
participant "release-x.x.x-alpha"
participant "release-x.x.x"
control "stage预发布环境"
control "pre-production"
control "生产环境"

master -> "person-repo": fork
"person-repo" -> "person-repo": commit
"person-repo" -> master: merge requests
master -> "stage预发布环境": 自动化测试CI
"stage预发布环境" -> master: 测试通过+code review

master -> "release-x.x.x-alpha": cherryPick
"release-x.x.x-alpha" -> "pre-production": 部署
"pre-production" -> "pre-production": 测试
"pre-production" - -> "release-x.x.x-alpha": 测试不通过
"release-x.x.x-alpha" -> "person-repo": pull
"person-repo" -> "person-repo": fix bug
"person-repo" -> "release-x.x.x-alpha": merge requests
"release-x.x.x-alpha" -> "pre-production": 部署
"pre-production" -> "pre-production": 测试
"pre-production" - -> "release-x.x.x-alpha": 测试通过

"release-x.x.x-alpha" -> "release-x.x.x": checkout -b
"release-x.x.x" -x "release-x.x.x-alpha": 删除分支alpha分支
"release-x.x.x" -> "生产环境": 部署
"生产环境" - -> "生产环境": 测试
"生产环境" - -> "release-x.x.x": 测试通过
"release-x.x.x" -> master: cherryPick
@enduml

PlantUML version 1.2022.10beta1(Unknown compile time)
(GPL source distribution)
Java Runtime: Java(TM) SE Runtime Environment
JVM: Java HotSpot(TM) 64-Bit Server VM
Default Encoding: UTF-8
Language: en
Country: US
--></g></svg>